<svg width="97" height="34" viewBox="0 0 97 34" fill="none" xmlns="http://www.w3.org/2000/svg">
<g>
<path d="M0 24.4653C0 19.3399 3.38028 15.3662 8.46546 15.3662C11.1692 15.3662 13.1989 16.4831 14.5172 18.1585V15.9247H17.8653V25.5178L20.3756 33.0086H16.8343L14.775 26.6025L14.485 30.807C13.1962 32.3831 11.2658 33.5 8.46546 33.5C3.4125 33.5 0 29.5585 0 24.4653ZM14.6488 24.4653C14.6488 21.0152 12.3317 18.4538 9.04809 18.4538C5.76446 18.4538 3.4474 21.0501 3.4474 24.4653C3.4474 27.8805 5.63559 30.3774 9.04809 30.3774C12.4606 30.3774 14.6488 27.8805 14.6488 24.4653Z" fill="#131619"/>
<path d="M21.9893 15.922H25.3373V20.8488L26.3039 16.9073C26.8838 16.3167 28.0732 15.3635 30.2319 15.3635C33.4833 15.3635 35.6392 17.6296 35.897 20.8488L36.7669 16.9073C37.4435 16.2173 38.7618 15.3635 40.7593 15.3635C44.3329 15.3635 46.65 17.6645 46.65 22.0006V33.0059H43.3019V22.6235C43.3019 19.799 42.0776 18.4834 39.8894 18.4834C37.3146 18.4834 35.9936 20.3896 35.9936 23.5417V33.0033H32.6456V22.6557C32.6456 20.191 31.7112 18.4834 29.2653 18.4834C26.8194 18.4834 25.4018 20.5212 25.3373 23.7082V33.0059H21.9893V15.922Z" fill="#131619"/>
<path d="M91.3159 0.5H84.456C84.456 3.43727 82.0664 5.82414 79.1318 5.82414V12.684C82.0691 12.684 84.456 15.0736 84.456 18.0082H91.3159C91.3159 15.0709 93.7054 12.684 96.64 12.684V5.82414C93.7027 5.82414 91.3159 3.43459 91.3159 0.5ZM93.1819 9.82194C92.124 10.2703 91.1736 10.9093 90.3574 11.7255C89.5412 12.5417 88.9022 13.4922 88.4538 14.55C88.1907 15.1729 88 15.8173 87.8873 16.4778C87.7718 15.8173 87.5839 15.1729 87.3208 14.55C86.8724 13.4922 86.2334 12.5417 85.4172 11.7255C84.601 10.9093 83.6505 10.2703 82.5927 9.82194C81.9698 9.55882 81.3254 9.3682 80.6649 9.25543C81.3254 9.13998 81.9698 8.95204 82.5927 8.68892C83.6505 8.24054 84.601 7.60154 85.4172 6.78533C86.2334 5.96912 86.8724 5.01867 87.3208 3.96082C87.5839 3.33793 87.7745 2.69356 87.8873 2.03307C88.0027 2.69356 88.1907 3.33793 88.4538 3.96082C88.9022 5.01867 89.5412 5.96912 90.3574 6.78533C91.1736 7.60154 92.124 8.24054 93.1819 8.68892C93.8048 8.95204 94.4491 9.14266 95.1096 9.25543C94.4491 9.37088 93.8048 9.55882 93.1819 9.82194Z" fill="#131619"/>
<path d="M61.8224 27.0589C61.3069 28.9303 59.3764 30.3452 57.1211 30.3452C53.7731 30.3452 51.6493 28.0792 51.6493 24.4331C51.6493 20.787 53.8697 18.4861 57.1211 18.4861C59.2771 18.4861 61.2424 19.7023 61.7901 21.8368H65.2134C65.1087 20.7602 64.6979 19.8366 64.2844 19.1492C64.1528 18.9264 64.0079 18.7089 63.8495 18.4995C63.7609 18.384 63.683 18.2847 63.6105 18.1988C63.5971 18.1827 63.5837 18.1666 63.5702 18.1504C63.4064 17.9598 63.2991 17.8551 63.2991 17.8551C61.8304 16.3408 59.6127 15.3635 57.1211 15.3635C51.9715 15.3635 48.2046 19.1089 48.2046 24.4304C48.2046 29.7519 51.8426 33.4973 57.1211 33.4973C59.6449 33.4973 61.8841 32.4743 63.3608 30.8983V30.9037C63.3608 30.9037 63.5756 30.6943 63.8548 30.3184C63.9005 30.2566 63.9434 30.1949 63.9891 30.1304C64.0132 30.0982 64.0347 30.0633 64.0589 30.0284C64.1582 29.8834 64.2522 29.7331 64.3408 29.58C64.3408 29.58 64.3408 29.5773 64.3435 29.5747C64.4186 29.4431 64.4885 29.3115 64.5556 29.1773C64.6066 29.0726 64.6576 28.9652 64.7086 28.8524C64.7113 28.8444 64.714 28.839 64.7194 28.8309C64.9449 28.3128 65.1328 27.7167 65.2134 27.0562H61.8224V27.0589Z" fill="#131619"/>
<path d="M70.2958 20.489C70.2958 19.1089 71.512 18.0914 73.574 18.0914C75.9153 18.0914 77.3194 19.3721 77.4752 21.5415L80.5896 20.744C80.5601 20.395 80.4984 20.0755 80.4205 19.7855C80.4205 19.7802 80.4205 19.7775 80.4178 19.7721C80.3722 19.6003 80.3212 19.4392 80.2675 19.2942C80.2567 19.2647 80.246 19.2351 80.2326 19.2056C80.1681 19.0391 80.1064 18.8915 80.0446 18.7653C80.0446 18.7626 80.0419 18.7599 80.0392 18.7572C79.8889 18.4431 79.7654 18.2632 79.7654 18.2632C78.6377 16.467 76.4334 15.3689 73.5687 15.3689C69.979 15.3689 66.9531 17.6027 66.9531 20.6904C66.9531 27.5556 77.2523 24.6318 77.2523 28.4443C77.2523 30.0203 75.7864 30.7453 73.8828 30.7453C71.4476 30.7453 69.7319 29.4968 69.6058 26.9005L66.4134 27.7167C66.4134 27.7167 66.4 27.9342 66.4591 28.3101H66.4537C66.4617 28.3665 66.4779 28.4175 66.4886 28.4712C66.5047 28.5571 66.5235 28.6484 66.5477 28.745C66.6577 29.1961 66.8162 29.623 67.0202 30.023C67.0336 30.0499 67.0444 30.0767 67.0605 30.1063C67.0605 30.1063 67.0605 30.1036 67.0632 30.1009C68.1828 32.1978 70.5884 33.5053 73.8801 33.5053C77.9074 33.5053 80.7454 31.6662 80.7454 28.2161C80.7454 21.4824 70.2904 24.2398 70.2904 20.497L70.2958 20.489Z" fill="#131619"/>
</g>
</svg>
